<svg xmlns="http://www.w3.org/2000/svg" height="1281" preserveAspectRatio="none" style="display: block;" version="1.1" viewBox="296 383 1455 1281" width="1455">
<path d="M 857.698 444.443 C 910.912 442.916 968.165 443.86 1021.62 443.868 L 1357 443.754 C 1318.49 506.716 1270.15 583.683 1215.89 634.319 C 1174.04 673.377 1101.78 709.445 1045.97 720.243 C 1024.37 724.423 982.022 723.609 958.227 723.726 C 914.781 724.051 871.334 724.14 827.887 723.994 C 780.816 723.812 732.756 719.751 695.181 754.605 C 677.592 771.211 667.3 794.111 666.558 818.289 C 665.07 863.969 698.345 881.761 738.542 888.759 C 757.595 892.076 775.655 890.369 794.781 889.939 C 809.053 889.746 823.327 889.668 837.6 889.705 L 1092.27 888.068 C 1081.94 904.425 1068.81 922.32 1057.62 938.329 L 897.66 1166.06 L 705.645 1166.16 L 637.247 1166.23 C 604.04 1166.3 578.607 1167.45 545.568 1159.93 C 503.08 1150.15 463.72 1129.88 431.082 1100.97 C 387.293 1061.46 360.734 1006.36 357.106 947.491 C 350.682 832.865 420.586 696.581 495.179 613.008 C 591.642 504.933 714.367 452.236 857.698 444.443 z" fill="rgb(210,20,4)" transform="translate(0,0)"></path>
<path d="M 1548.27 978.514 C 1594.47 977.229 1644.61 978.115 1690.96 978.424 C 1653.7 1100.56 1609.15 1211.73 1550.43 1325.32 C 1532.32 1360.34 1513.69 1400.23 1493.67 1433.89 C 1502.53 1384.53 1495.86 1295.16 1438.17 1276 C 1377.84 1255.96 1338.42 1327.08 1308.57 1366.64 C 1250.15 1444.09 1183.85 1512.79 1094.98 1555.02 C 982.691 1610.5 870.323 1617.93 751.499 1579.31 C 614.225 1534.99 515.899 1437.12 427.192 1327.62 L 708.01 1327.46 C 766.798 1327.56 827.693 1328.53 886.325 1327.57 C 913.559 1327.33 940.54 1322.32 966.047 1312.77 C 1030.45 1288.51 1053.6 1245.94 1093.03 1193.76 C 1101.87 1182.05 1118.1 1164.26 1128.51 1153.51 C 1212.49 1065.65 1322.58 1007.25 1442.41 987.003 C 1477.92 981.107 1512.38 979.092 1548.27 978.514 z" fill="rgb(210,20,4)" transform="translate(0,0)"></path>
<metadata><recraft-signature>{"signed_by": "recraft", "signature_b64": "sE84NlUhPsQyBXTGqk9Ar80hR4cI+ACdBRtrus6xE9G5IuZukJmk4tXac6zEzqmT/FmfHzLV41Puad3vZP7uCg==", "signing_algo": "Ed25519", "generation_timestamp": 1783344544, "identifier": "b2cec08a-70ac-4d95-a102-6171e2590663"}</recraft-signature></metadata></svg>