<svg xmlns="http://www.w3.org/2000/svg" height="1439" preserveAspectRatio="none" style="display: block;" version="1.1" viewBox="433 304 1181 1439" width="1181">
<path d="M 815.604 461.971 C 817.456 464.383 816.644 639.021 816.636 658.344 C 758.911 694.953 699.539 729.681 641.85 766.518 L 641.754 927.772 L 816.664 927.853 C 817.199 986.158 816.486 1045.59 816.373 1103.98 C 758.193 1103.63 700.011 1103.6 641.83 1103.87 L 641.705 1272.84 C 654.671 1282.08 680.138 1296.52 694.861 1305.6 L 816.809 1379.88 L 816.789 1581.52 C 794.344 1567.5 771.235 1553.92 748.631 1539.93 L 642.469 1474.24 C 585.158 1438.88 532.251 1410.94 498.651 1349.41 C 469.039 1295.18 474.142 1245.69 474.181 1186.6 L 474.246 1057.84 C 508.191 1035.53 557.341 1008.62 593.32 987.311 C 554.42 962.901 514.106 939.587 474.836 915.608 L 474.891 673.258 C 489.148 664.099 504.752 655.276 519.292 646.226 L 656.63 560.965 C 708.716 528.697 763.355 493.031 815.604 461.971 z" fill="rgb(210,20,4)" transform="translate(0,0)"></path>
<path d="M 1232.75 464.058 C 1263.43 481.127 1300.02 505.536 1330.85 524.429 L 1573.54 674.123 L 1573.56 915.551 L 1454.35 987.707 C 1494.14 1011.28 1533.88 1033.72 1573.52 1057.81 L 1573.32 1179.33 C 1573.42 1217.6 1575.93 1261.2 1567.95 1298.02 C 1558.85 1340 1533.68 1379.57 1502.38 1408.56 C 1484.14 1425.46 1453.91 1442.21 1431.94 1456.14 L 1303.79 1537.05 C 1280.51 1551.72 1254.85 1567.27 1232.31 1582.7 L 1232.44 1381.02 C 1290.18 1344.99 1348.91 1310.01 1405.91 1272.84 L 1405.91 1103.94 L 1232.52 1104.04 L 1232.3 928.146 L 1405.95 928.117 L 1405.82 766.698 C 1389.44 755.496 1369.24 743.823 1352.09 733.29 C 1312.08 709.049 1272.2 684.598 1232.45 659.938 L 1232.41 536.589 C 1232.37 516.179 1231.31 483.259 1232.75 464.058 z" fill="rgb(210,20,4)" transform="translate(0,0)"></path>
<path d="M 1003.87 344.081 C 1005.58 346.318 1004.94 390.37 1004.94 396.819 L 1004.97 492.075 L 1005 785.953 L 1005.1 1702.95 C 976.545 1683.45 943.515 1663.46 914.023 1644.86 C 895.384 1633.84 874.145 1619.38 855.502 1607.55 L 855.68 1308.23 L 855.724 437.432 L 1003.87 344.081 z" fill="rgb(23,24,28)" transform="translate(0,0)"></path>
<path d="M 1043.07 345.192 C 1048.51 347.503 1081.27 368.597 1088.08 372.859 L 1191.46 437.806 L 1191.35 1608.19 C 1172.26 1620.17 1153.32 1632.4 1134.54 1644.87 L 1043.17 1702.32 L 1043.07 345.192 z" fill="rgb(23,24,28)" transform="translate(0,0)"></path>
<metadata><recraft-signature>{"signed_by": "recraft", "signature_b64": "EID8lS8ZLLF1pZ9dMoarCZVgCbo/I9DIAb+TGV24XP5lT4rna9DMoiFFeLsadH2i1O1H5FC3AH5CnZPTFFWkCA==", "signing_algo": "Ed25519", "generation_timestamp": 1783344224, "identifier": "847593f8-898d-4e11-83ea-7ca58bbb6d01"}</recraft-signature></metadata></svg>